<?xml version="1.0" standalone="no"?>
<!DOCTYPE svg PUBLIC "-//W3C//DTD SVG 20010904//EN"
 "http://www.w3.org/TR/2001/REC-SVG-20010904/DTD/svg10.dtd">
<svg version="1.0" xmlns="http://www.w3.org/2000/svg"
 width="87.200000pt" height="24.000000pt" viewBox="0 0 87.200000 24.000000"
 preserveAspectRatio="xMidYMid meet">
<metadata>
Created by potrace 1.16, written by Peter Selinger 2001-2019
</metadata>
<g transform="translate(0.000000,24.000000) scale(0.016000,-0.016000)"
fill="#000000" stroke="none">
<path d="M839 1350 c-20 -21 -41 -52 -47 -69 -10 -28 -9 -31 14 -37 34 -9 93
4 126 28 25 17 75 95 66 103 -2 1 -30 5 -63 8 -59 6 -59 6 -96 -33z"/>
<path d="M2585 1353 c-76 -40 -137 -126 -206 -292 l-48 -116 -1 50 c-1 67 -24
174 -49 222 -11 22 -35 54 -55 70 -95 84 -262 67 -360 -36 -25 -26 -38 -31
-75 -31 -25 -1 -70 -9 -100 -19 -53 -19 -55 -19 -85 0 -20 12 -50 19 -83 19
-46 0 -53 -3 -53 -20 0 -17 7 -20 46 -20 25 0 54 -5 66 -11 20 -11 19 -12 -10
-42 -33 -34 -62 -93 -62 -126 0 -11 11 -32 24 -48 19 -22 32 -28 66 -28 83 0
126 94 86 190 l-15 35 40 10 c49 14 83 5 74 -18 -69 -169 -70 -306 -4 -405 57
-86 173 -103 236 -34 62 69 68 239 11 356 -25 52 -104 141 -124 141 -22 0 -16
16 16 43 39 34 94 50 135 43 151 -29 184 -275 99 -720 -32 -165 -31 -180 19
-184 46 -4 87 19 87 49 0 65 89 421 142 569 76 211 144 300 229 300 42 0 104
-63 120 -123 18 -66 7 -176 -24 -239 -45 -92 -108 -145 -184 -156 -60 -9 -72
-36 -20 -46 51 -10 108 -56 146 -120 19 -31 32 -58 30 -59 -2 -2 -49 -22 -104
-45 -174 -74 -246 -142 -253 -241 -5 -70 18 -123 78 -173 141 -121 372 -45
424 140 21 75 21 190 -1 266 -11 39 -13 61 -6 63 6 2 27 12 47 22 l36 19 0
-57 c0 -104 37 -171 93 -171 40 0 107 42 146 92 l40 50 -6 -99 c-6 -112 8
-165 51 -184 55 -26 124 34 194 168 l39 75 1 -128 c1 -141 10 -185 44 -221 66
-70 167 14 253 212 l32 74 12 -41 c18 -58 60 -98 104 -98 62 0 145 80 223 215
l28 49 7 -32 c9 -43 34 -79 72 -103 44 -28 139 -23 185 9 41 30 77 91 96 166
9 32 17 60 18 61 2 1 30 5 62 8 l59 6 -5 -122 c-3 -67 -3 -128 -1 -135 9 -23
53 -34 89 -22 25 9 34 18 39 43 32 157 108 348 143 362 39 15 43 -69 17 -351
-19 -197 -6 -287 45 -314 80 -43 156 47 237 277 48 139 96 321 87 334 -13 22
-34 6 -44 -33 -56 -222 -114 -390 -160 -466 -22 -35 -39 -42 -41 -14 -1 9 -3
28 -4 42 -2 14 1 77 7 140 5 63 13 156 17 205 11 131 6 159 -40 207 -36 38
-41 40 -80 35 -59 -8 -111 -62 -146 -151 l-28 -71 -3 55 c-4 66 -14 80 -57 80
-46 0 -65 -9 -75 -35 -9 -23 -42 -34 -90 -31 -24 1 -25 5 -31 76 -8 94 -24
153 -55 207 -38 65 -68 84 -131 82 -50 -2 -54 -5 -80 -43 -36 -54 -38 -140 -5
-203 l22 -43 -23 0 c-28 0 -77 -35 -77 -55 0 -24 -118 -248 -157 -299 -68 -88
-95 -88 -113 1 -17 78 -2 194 35 268 35 72 59 72 63 2 2 -32 8 -50 19 -54 38
-15 45 76 10 128 -48 72 -118 72 -177 1 -30 -36 -70 -143 -70 -186 0 -30 -53
-174 -96 -261 -41 -83 -77 -131 -92 -122 -19 12 -24 130 -12 263 6 71 31 246
55 389 62 371 60 342 34 355 -24 13 -82 6 -96 -13 -6 -6 -15 -41 -21 -77 -60
-372 -74 -433 -127 -560 -59 -144 -121 -248 -138 -231 -16 16 6 171 48 340 20
79 34 149 31 156 -6 17 -66 29 -95 20 -11 -3 -23 -16 -26 -28 -40 -140 -161
-357 -200 -357 -39 0 -32 172 12 259 35 71 54 75 79 19 20 -46 33 -60 47 -51
28 17 -25 128 -75 158 -57 33 -131 -13 -177 -109 -28 -57 -37 -66 -92 -96 -59
-31 -62 -32 -72 -14 -18 32 -98 113 -118 119 -29 10 -23 18 26 39 170 69 246
320 146 478 -63 100 -183 145 -266 101z m-697 -288 c16 -31 52 -184 52 -219 0
-35 -20 -93 -39 -117 -27 -34 -62 -15 -95 54 -41 83 -36 230 11 320 14 28 15
28 35 10 11 -10 27 -31 36 -48z m2538 -70 c14 -14 34 -45 45 -69 24 -55 46
-203 32 -217 -6 -6 -31 2 -72 22 -69 35 -114 86 -132 151 -27 100 61 178 127
113z m60 -335 c44 0 -22 -181 -78 -211 -61 -33 -115 48 -103 155 3 33 13 75
20 93 l14 32 66 -34 c37 -19 73 -35 81 -35z m-1760 -196 c12 -81 0 -205 -25
-257 -31 -64 -90 -109 -149 -114 -40 -4 -53 0 -89 26 -72 52 -101 137 -69 200
29 55 144 132 266 177 54 20 58 17 66 -32z"/>
<path d="M285 1301 c-63 -36 -99 -87 -121 -170 -27 -109 -3 -242 61 -326 l34
-44 -37 -12 c-83 -26 -160 -108 -183 -193 -23 -85 8 -193 73 -253 33 -31 104
-60 164 -68 153 -21 345 88 440 250 14 25 27 45 28 45 1 0 0 -64 -2 -142 -5
-153 4 -207 39 -252 23 -29 67 -34 107 -13 40 22 110 129 154 232 64 153 129
367 116 383 -18 22 -33 -4 -63 -108 -69 -237 -181 -467 -212 -436 -14 14 -19
140 -11 255 7 104 21 197 90 598 25 147 21 163 -36 163 -62 0 -65 -7 -108
-259 -40 -241 -57 -299 -124 -418 -70 -126 -214 -243 -299 -243 -91 0 -167 44
-209 119 -77 142 28 296 217 317 45 5 57 10 57 24 0 12 -11 20 -35 24 -43 8
-97 69 -120 135 -53 151 -14 315 87 367 36 19 70 12 116 -23 l33 -25 -30 -34
c-79 -89 -58 -220 35 -217 86 2 116 93 69 207 -7 17 -4 18 36 12 79 -11 92
-11 96 2 7 18 -58 42 -113 42 -38 0 -53 6 -82 31 -77 68 -181 80 -267 30z"/>
<path d="M1162 1274 l-64 -36 44 -27 c37 -22 54 -26 123 -26 83 0 145 21 145
49 0 17 -96 64 -146 71 -33 5 -50 0 -102 -31z"/>
<path d="M4495 1181 c-27 -16 -61 -41 -74 -55 -34 -36 -18 -49 64 -54 50 -3
73 0 107 17 40 19 115 79 107 85 -7 5 -129 36 -141 36 -7 0 -35 -13 -63 -29z"/>
</g>
</svg>
